<svg width="32" height="32" viewBox="0 0 32 32" xmlns="http://www.w3.org/2000/svg">
  <defs>
    <linearGradient id="gradient" x1="0%" y1="0%" x2="100%" y2="100%">
      <stop offset="0%" stop-color="#FF6B6B" />
      <stop offset="100%" stop-color="#FFA3A3" />
    </linearGradient>
  </defs>
  <path 
    d="M16 0C7.163 0 0 7.163 0 16s7.163 16 16 16 16-7.163 16-16S24.837 0 16 0zm0 30C8.268 30 2 23.732 2 16S8.268 2 16 2s14 6.268 14 14-6.268 14-14 14zm-3-22v16l12-8-12-8z" 
    fill="url(#gradient)" 
    fill-rule="evenodd"
  />
  <path 
    d="M13 8v16l12-8-12-8z" 
    fill="#1A1A2E" 
    fill-rule="evenodd"
  />
</svg>